<?xml version="1.0" encoding="UTF-8"?>
<svg id="Camada_1" xmlns="http://www.w3.org/2000/svg" viewBox="0 0 884 895.05">
  <defs>
    <style>
      .cls-1 {
        fill: none;
        stroke: #000;
        stroke-miterlimit: 10;
        stroke-width: 30px;
      }
    </style>
  </defs>
  <path class="cls-1" d="M373.22,142.23c172.09-16.52,332.05,29.89,482.14,127.49"/>
  <path class="cls-1" d="M389.49,263.01c163.93-18.51,308.71,25.37,434.33,131.64"/>
  <path class="cls-1" d="M442,378.56c128-4.3,241,44.7,332.81,132.01"/>
  <path class="cls-1" d="M239.59,687.57c141.45-67.44,255.38-158.67,314.38-297.38"/>
  <path class="cls-1" d="M667.03,431.94c-69.52,151.96-185.86,265.94-342.43,347.3"/>
  <path class="cls-1" d="M258.61,36.71c-19.59,182.89,13.77,329.92,109.65,434.63"/>
  <path class="cls-1" d="M140.74,74.12c-17.19,180.2,32.35,334.74,130.91,470.43"/>
  <path class="cls-1" d="M169.03,594.81c116.42-42.55,207.41-114.63,272.97-216.25"/>
  <path class="cls-1" d="M381.5,17.3c-18.5,160.95-2.5,271.95,60.5,361.25"/>
  <path class="cls-1" d="M442,876.82c262-176.57,421-436.57,427-740.57v-2C591-25.75,297-23.75,15,134.25v3c19,305,183,567,427,739.57h0Z"/>
</svg>